<svg width="532" height="147" viewBox="0 0 532 147" fill="none" xmlns="http://www.w3.org/2000/svg">
<path d="M41.7689 0.95459C36.2785 0.964257 30.8447 2.05403 25.7822 4.16066C20.7081 6.28126 16.1188 9.39704 12.2905 13.3207C8.34808 17.1992 5.20889 21.8044 3.04967 26.8774C1.01908 31.9494 -0.015942 37.3592 0.000185606 42.816V56.6474H33.8218V36.9534C33.8265 36.0106 34.0148 35.0777 34.3763 34.2055C34.7254 33.3379 35.2615 32.5563 35.9472 31.9155C36.6009 31.2444 37.3874 30.7142 38.2574 30.3582C39.132 29.983 40.0768 29.7957 41.0297 29.8086H42.231C43.1821 29.8133 44.1234 29.9999 45.0032 30.3582C46.7417 31.1072 48.1288 32.4822 48.8844 34.2055C49.2459 35.0777 49.4341 36.0106 49.4389 36.9534V90.7228C53.8815 90.74 58.2819 89.8677 62.3761 88.158C66.4878 86.4894 70.2253 84.0298 73.3727 80.9215C76.4804 77.744 78.9569 74.0152 80.673 69.9296C82.3722 65.8314 83.251 61.4447 83.2605 57.0139V43.1822C83.2822 32.1127 78.8991 21.4815 71.0625 13.5955C67.2392 9.66597 62.6487 6.54932 57.5708 4.43545C52.5106 2.32178 47.0753 1.23171 41.5841 1.22938" fill="white"/>
<path d="M42.416 117.653H41.2146C40.2628 117.655 39.3201 117.469 38.4424 117.103C37.5846 116.725 36.8022 116.198 36.1322 115.546C34.7815 114.173 34.0198 112.334 34.0068 110.416V56.6471C29.5562 56.6493 25.1501 57.5246 21.0424 59.2225C16.9347 60.9204 13.2066 63.4074 10.0729 66.5401C6.91516 69.6775 4.43172 73.4166 2.7726 77.532C1.04042 81.5881 0.160049 85.9514 0.185167 90.3559V104.005C0.124098 109.495 1.16053 114.943 3.23466 120.035C5.35029 125.158 8.49419 129.801 12.4755 133.683C16.358 137.585 20.9726 140.696 26.0596 142.843C31.1359 144.957 36.5866 146.045 42.0925 146.045C47.5985 146.045 53.0492 144.957 58.1255 142.843C63.2125 140.696 67.827 137.585 71.7095 133.683C75.6297 129.751 78.765 125.121 80.9504 120.035C82.9816 114.931 84.0165 109.491 83.9999 104.005V90.3559H49.6238V110.233C49.6369 111.178 49.448 112.114 49.0694 112.981C48.689 113.859 48.1574 114.665 47.4984 115.363C46.8284 116.015 46.046 116.542 45.1882 116.92C44.3084 117.279 43.3671 117.465 42.416 117.47" fill="white"/>
<path d="M139.464 36.0925H128V94.1998H161.764V83.2713H139.464V36.0925Z" fill="white"/>
<path d="M198.483 57.5942C196.859 55.6253 194.808 54.0457 192.482 52.9739C190.121 51.9237 187.545 51.4371 184.959 51.5525C182.25 51.5498 179.569 52.0939 177.078 53.1517C174.637 54.2808 172.468 55.9171 170.72 57.9497C166.855 62.2212 164.718 67.7586 164.718 73.4982C164.718 79.2379 166.855 84.7752 170.72 89.0468C172.458 91.0683 174.63 92.6775 177.078 93.7558C179.55 94.8825 182.24 95.4588 184.959 95.4439C187.545 95.5815 190.126 95.0957 192.481 94.028C194.836 92.9604 196.895 91.3427 198.483 89.3133V94.1999H209.23V52.7073H198.483V57.5942ZM195.259 81.9387C194.142 82.9979 192.836 83.8415 191.408 84.4265C188.52 85.4958 185.34 85.4958 182.452 84.4265C181.063 83.8186 179.79 82.9769 178.69 81.9387C176.607 79.613 175.456 76.6098 175.456 73.4982C175.456 70.3867 176.607 67.3832 178.69 65.0575C179.767 63.9906 181.045 63.1451 182.452 62.5697C185.34 61.5004 188.52 61.5004 191.408 62.5697C192.853 63.1212 194.166 63.9688 195.259 65.0575C197.342 67.3832 198.493 70.3867 198.493 73.4982C198.493 76.6098 197.342 79.613 195.259 81.9387Z" fill="white"/>
<path d="M236.904 80.606L226.067 52.7073H214.335L231.44 92.9558C230.718 95.3408 229.319 97.4691 227.41 99.0864C225.371 100.414 222.947 101.039 220.514 100.864V110.815C225.25 111.275 229.992 110.012 233.859 107.261C238.047 103.888 241.158 99.3819 242.814 94.2888L257.95 52.7073H245.859L236.904 80.606Z" fill="white"/>
<path d="M280.877 51.5527C277.818 51.4256 274.766 51.9401 271.921 53.063C269.186 54.1305 266.712 55.7665 264.667 57.8609C260.714 62.1246 258.521 67.7059 258.521 73.4984C258.521 79.291 260.714 84.872 264.667 89.1357C266.846 91.2562 269.441 92.9103 272.291 93.9954C275.141 95.0805 278.185 95.5737 281.235 95.4441C284.732 95.572 288.206 94.8251 291.336 93.2725C294.466 91.7199 297.152 89.4114 299.147 86.5592L290.191 81.4948C289.121 82.9192 287.703 84.0503 286.071 84.7822C284.434 85.4778 282.655 85.7821 280.877 85.6707C278.296 86.0143 275.678 85.4086 273.517 83.9682C271.355 82.5277 269.8 80.3521 269.145 77.852H300.49C300.772 76.4172 300.922 74.9601 300.938 73.4984C301.103 67.72 298.981 62.1071 295.027 57.8609C293.088 55.8056 290.74 54.1718 288.131 53.063C285.523 51.9898 282.715 51.4753 279.892 51.5527M268.966 69.3225C269.418 66.8657 270.755 64.6555 272.727 63.103C274.793 61.5796 277.319 60.7965 279.892 60.8818C282.247 60.8689 284.542 61.6174 286.43 63.0141C288.454 64.5594 289.801 66.8185 290.191 69.3225H268.966Z" fill="white"/>
<path d="M320.193 59.9044V52.7073H309.446V94.1999H320.193V74.2089C319.965 72.5209 320.203 70.8031 320.881 69.2385C321.559 67.674 322.653 66.3212 324.044 65.324C326.688 63.6051 329.865 62.8802 333 63.2804V51.3747C330.299 51.3021 327.632 51.9791 325.298 53.3294C322.971 54.6829 321.22 56.8304 320.372 59.371" fill="white"/>
<path d="M385.213 45.0664V36.0925H346.971V47.11H370.615L346.344 85.0484V94.1998H385.661V83.2713H360.943L385.213 45.0664Z" fill="white"/>
<path d="M411.006 51.5527C407.947 51.4256 404.895 51.9401 402.05 53.063C399.315 54.1305 396.841 55.7665 394.796 57.8609C390.843 62.1246 388.65 67.7059 388.65 73.4984C388.65 79.291 390.843 84.872 394.796 89.1357C396.975 91.2562 399.57 92.9103 402.42 93.9954C405.27 95.0805 408.314 95.5737 411.364 95.4441C414.862 95.5802 418.339 94.837 421.47 93.2837C424.602 91.7304 427.287 89.4174 429.276 86.5592L420.32 81.4948C419.25 82.9192 417.832 84.0503 416.2 84.7822C414.563 85.4778 412.784 85.7821 411.006 85.6707C408.425 86.0143 405.807 85.4086 403.645 83.9682C401.484 82.5277 399.929 80.3521 399.274 77.852H430.709C430.842 76.4038 430.842 74.9466 430.709 73.4984C430.873 67.72 428.752 62.1071 424.798 57.8609C422.859 55.8056 420.51 54.1718 417.902 53.063C415.296 51.982 412.486 51.4671 409.662 51.5527M398.736 69.3225C399.226 66.8797 400.556 64.6813 402.498 63.103C404.564 61.5796 407.09 60.7965 409.662 60.8818C412.017 60.8689 414.312 61.6174 416.2 63.0141C417.217 63.7663 418.073 64.7112 418.718 65.7941C419.364 66.877 419.787 68.0764 419.962 69.3225H398.736Z" fill="white"/>
<path d="M450.322 59.9044V52.7073H439.575V94.1999H450.322V74.2089C450.094 72.5209 450.332 70.8031 451.01 69.2385C451.689 67.674 452.782 66.3212 454.173 65.324C456.817 63.6051 459.994 62.8802 463.129 63.2804V51.3747C460.428 51.3021 457.761 51.9791 455.427 53.3294C453.1 54.6829 451.349 56.8304 450.501 59.371" fill="white"/>
<path d="M487.668 51.5524C483.897 51.6172 480.206 52.6452 476.952 54.5375C473.698 56.4298 470.991 59.1222 469.091 62.3552C467.192 65.5881 466.164 69.2522 466.108 72.9938C466.052 76.7354 466.97 80.4283 468.771 83.7157C470.56 87.0054 473.179 89.778 476.372 91.7622C479.565 93.7465 483.222 94.8746 486.987 95.0358C490.751 95.197 494.493 94.3859 497.846 92.682C501.2 90.978 504.05 88.4395 506.117 85.3149C508.898 81.1148 510.161 76.1033 509.7 71.0991C509.16 66.1229 506.916 61.4813 503.341 57.9496C501.327 55.8593 498.884 54.2229 496.176 53.1517C493.358 51.9326 490.291 51.3849 487.22 51.5524M495.37 81.6721C494.31 82.7587 493.028 83.607 491.609 84.1599C490.21 84.6983 488.721 84.9695 487.22 84.9595C485.75 84.9605 484.292 84.6894 482.922 84.1599C481.518 83.6277 480.26 82.7755 479.25 81.6721C477.18 79.4447 476.03 76.5275 476.026 73.4981C476.05 70.4462 477.196 67.5077 479.25 65.235C480.254 64.1451 481.516 63.3207 482.922 62.8362C484.266 62.2213 485.743 61.9465 487.22 62.0366C488.728 61.9316 490.238 62.2066 491.609 62.8362C493.022 63.358 494.305 64.1762 495.37 65.235C497.441 67.4792 498.589 70.4114 498.589 73.4537C498.589 76.496 497.441 79.4279 495.37 81.6721Z" fill="white"/>
<path d="M532 81.4059H518.925V94.2002H532V81.4059Z" fill="white"/>
</svg>
